<svg width="167" height="43" viewBox="0 0 167 43" fill="none" xmlns="http://www.w3.org/2000/svg">
<path d="M29 22.3482V19.6518C25.572 19.5112 22.327 18.1463 19.9166 15.8312C17.4864 13.5195 16.0574 10.429 15.9109 7.16824H13.0854C12.9445 10.3215 11.6019 13.3192 9.3068 15.6053L8.91964 15.9882L8.47478 15.6706C6.03081 13.9235 2.78087 11.2076 2.78087 7.81059V2.66118H26.2098V13.0976H28.9888V0H0.0093068V7.81059C0.0093068 11.1071 1.88742 14.0735 5.92285 17.1459L6.66739 17.7053L5.83537 18.1306C4.03442 19.0446 2.0406 19.5649 0 19.6535L0 22.3553C1.59087 22.4234 3.15664 22.7567 4.62548 23.34C6.29276 23.9977 7.80603 24.9622 9.07786 26.1776C10.3557 27.3933 11.3678 28.8362 12.056 30.4235C12.6669 31.8262 13.0152 33.3192 13.0854 34.8353H15.9053C16.0432 31.6797 17.3853 28.6789 19.682 26.3912L20.0673 26.0065L20.5122 26.3259C22.9562 28.0712 26.2042 30.7871 26.2042 34.1841V39.3353H2.79204V28.9024H0.0093068V42H28.9888V34.1894C28.9888 30.8965 27.1107 27.93 23.0753 24.8559L22.3307 24.2947L23.1609 23.8712C24.9624 22.9553 26.9579 22.4349 29 22.3482ZM21.8803 21.5294C21.3267 21.8101 20.791 22.1212 20.2758 22.4612C18.0927 23.9057 16.3021 25.8204 15.051 28.0482L14.4926 29.0329L13.9341 28.0482C12.3934 25.2825 10.0201 23.0134 7.11598 21.5294L6.09223 21L7.11784 20.4706C7.67114 20.1882 8.20685 19.876 8.72234 19.5353C10.9043 18.0955 12.6949 16.1856 13.9472 13.9624L14.5056 12.9759L15.064 13.9624C16.6067 16.7308 18.9842 19.0008 21.8933 20.4829L22.9208 21.0124L21.8803 21.5294Z" fill="#6B8E85"/>
<path d="M48.5415 18.3276C46.9209 18.3276 45.534 17.9911 44.3808 17.3182C43.226 16.6446 42.3025 15.666 41.7229 14.5019C41.103 13.2986 40.793 11.902 40.793 10.3121C40.793 8.72219 41.103 7.32617 41.7229 6.12401C42.3025 4.95994 43.226 3.98139 44.3808 3.3078C45.534 2.63601 46.9209 2.29952 48.5415 2.29834C50.1621 2.29716 51.5509 2.63365 52.7078 3.3078C53.8646 3.98059 54.7902 4.95922 55.3712 6.12401C55.9912 7.32852 56.3012 8.72455 56.3012 10.3121C56.3012 11.8996 55.9912 13.2963 55.3712 14.5019C54.7893 15.6648 53.8638 16.6415 52.7078 17.3129C51.5484 17.9882 50.1597 18.3264 48.5415 18.3276ZM48.5415 15.9021C49.6277 15.9092 50.5323 15.6811 51.2552 15.2179C51.996 14.7379 52.5672 14.0564 52.8938 13.2627C53.2757 12.3222 53.4608 11.32 53.4387 10.3121C53.4618 9.30991 53.2766 8.31324 52.8938 7.3792C52.5666 6.59067 51.9985 5.91334 51.2626 5.43454C50.5397 4.97136 49.6352 4.7327 48.5489 4.71856C47.4627 4.70441 46.5551 4.93424 45.826 5.40803C45.0904 5.89042 44.5241 6.57156 44.2004 7.36329C43.8186 8.30316 43.6335 9.30482 43.6554 10.3121C43.6323 11.3144 43.8156 12.3113 44.1948 13.2468C44.52 14.0363 45.0886 14.7142 45.826 15.1914C46.5476 15.6511 47.4528 15.8868 48.5415 15.8986V15.9021Z" fill="#6B8E85"/>
<path d="M65.0667 18.3276C63.8849 18.3519 62.7155 18.0948 61.6649 17.5798C60.7058 17.099 59.9104 16.3687 59.3716 15.4743C58.8033 14.5023 58.5182 13.4038 58.5458 12.2921V2.63956L61.2892 2.61658V12.225C61.2793 12.757 61.3844 13.2853 61.5979 13.7771C61.7908 14.2139 62.0757 14.6086 62.4349 14.9369C62.7848 15.2522 63.1979 15.4975 63.6495 15.6582C64.1028 15.8188 64.5829 15.9002 65.0667 15.8986C65.5564 15.9001 66.042 15.815 66.4989 15.6475C66.9484 15.4827 67.3592 15.2352 67.7079 14.9192C68.0676 14.5931 68.3509 14.1985 68.5393 13.7612C68.7483 13.2726 68.8514 12.7488 68.8424 12.2214V2.61835H71.5877V12.2904C71.6146 13.4022 71.3289 14.5007 70.76 15.4725C70.2212 16.3669 69.4258 17.0972 68.4667 17.5781C67.4168 18.0933 66.2481 18.351 65.0667 18.3276Z" fill="#6B8E85"/>
<path d="M74.7354 18.0058V2.62537H81.4312C81.5893 2.62537 81.792 2.62537 82.0394 2.64304C82.2689 2.65092 82.4976 2.67396 82.7238 2.71199C83.5653 2.80956 84.3654 3.11425 85.045 3.59593C85.6523 4.04642 86.1223 4.64262 86.4065 5.32314C86.7109 6.05929 86.8618 6.84463 86.851 7.63551C86.8831 8.78647 86.533 9.9178 85.8504 10.8689C85.1833 11.7706 84.1603 12.328 82.7815 12.5413L81.6227 12.6368H77.4453V18.0111L74.7354 18.0058ZM77.4453 10.2272H81.3121C81.4609 10.2272 81.6302 10.2272 81.818 10.206C81.9929 10.1939 82.1661 10.1655 82.3351 10.1211C82.7409 10.0372 83.1108 9.83953 83.3971 9.55365C83.6542 9.29153 83.8451 8.97713 83.9551 8.63436C84.0611 8.30906 84.1162 7.97073 84.1188 7.63021C84.1157 7.28798 84.0605 6.94798 83.9551 6.62075C83.8456 6.27619 83.6548 5.95995 83.3971 5.69616C83.1111 5.41023 82.741 5.21305 82.3351 5.13044C82.1661 5.08647 81.9929 5.05922 81.818 5.04912C81.632 5.04028 81.4609 5.03497 81.3121 5.03497H77.4453V10.2272ZM84.0332 18.0058L80.8397 11.744L83.5943 11.1677L87.1021 18.0058H84.0332Z" fill="#6B8E85"/>
<path d="M47.686 42.0736C46.5883 42.0899 45.499 41.8894 44.4869 41.4849C43.5718 41.1186 42.7679 40.54 42.149 39.8019C41.5291 39.0469 41.1294 38.1499 40.9902 37.2014L43.8025 36.7948C43.9996 37.652 44.5262 38.4085 45.2793 38.9162C46.0354 39.4177 46.9389 39.6795 47.8609 39.664C48.4154 39.6678 48.9665 39.5811 49.4902 39.4077C49.9626 39.259 50.3892 39.0022 50.7326 38.6599C51.0513 38.3319 51.2227 37.8987 51.2106 37.4524C51.2127 37.2495 51.1749 37.048 51.099 36.8584C51.0229 36.677 50.9097 36.5118 50.7661 36.3722C50.6015 36.2169 50.4134 36.0858 50.2081 35.9833C49.9556 35.8562 49.6901 35.7537 49.4158 35.6775L45.2328 34.5036C44.8378 34.3904 44.4497 34.2564 44.0703 34.1023C43.6424 33.9279 43.2443 33.6937 42.8892 33.4075C42.5048 33.0951 42.1942 32.7089 41.9779 32.2743C41.7255 31.7391 41.6046 31.1563 41.6245 30.5701C41.5924 29.6784 41.871 28.8015 42.4168 28.0756C42.9638 27.3888 43.705 26.864 44.5539 26.5623C45.5037 26.2191 46.5139 26.0523 47.5298 26.0709C48.5499 26.0597 49.5619 26.2437 50.5057 26.6118C51.3526 26.9477 52.1012 27.4736 52.6874 28.1446C53.2879 28.8529 53.7081 29.6837 53.915 30.5718L51.0023 31.0527C50.898 30.5436 50.6607 30.0676 50.3123 29.6685C49.9735 29.2899 49.546 28.992 49.0643 28.7987C48.5671 28.5982 48.0344 28.489 47.4945 28.4769C46.9836 28.466 46.4749 28.5439 45.9935 28.7067C45.5669 28.8447 45.1834 29.0817 44.8775 29.3962C44.6017 29.682 44.4508 30.0568 44.4553 30.4446C44.4485 30.6134 44.4769 30.7818 44.5388 30.9402C44.6007 31.0986 44.695 31.2438 44.8161 31.3674C45.068 31.6146 45.3723 31.8081 45.7089 31.9349C46.0625 32.0752 46.4253 32.1933 46.7951 32.2885L49.6985 33.0469C50.0947 33.1476 50.5411 33.282 51.0358 33.4535C51.5431 33.6313 52.0234 33.872 52.4642 34.1695C52.9314 34.4861 53.3173 34.8988 53.5932 35.3769C53.9119 35.9638 54.0651 36.6192 54.0378 37.2791C54.0542 38.0101 53.8744 38.7329 53.5151 39.3794C53.1723 39.9757 52.6899 40.4892 52.1053 40.8803C51.4892 41.2899 50.8024 41.5939 50.0761 41.7784C49.297 41.9787 48.4931 42.078 47.686 42.0736Z" fill="#6B8E85"/>
<path d="M63.3247 42.0737C61.7053 42.0737 60.3184 41.7372 59.164 41.0643C58.0096 40.3902 57.0862 39.4118 56.5061 38.248C55.8862 37.0447 55.5762 35.6487 55.5762 34.06C55.5762 32.4712 55.8862 31.0746 56.5061 29.8701C57.0858 28.7066 58.0093 27.7286 59.164 27.0557C60.3197 26.3815 61.7066 26.0444 63.3247 26.0444C64.9429 26.0444 66.331 26.3815 67.4891 27.0557C68.646 27.7258 69.5722 28.702 70.1544 29.8648C70.7744 31.0693 71.0844 32.4659 71.0844 34.0547C71.0844 35.6434 70.7744 37.0394 70.1544 38.2427C69.5727 39.4077 68.6465 40.3863 67.4891 41.059C66.3322 41.7343 64.9441 42.0725 63.3247 42.0737ZM63.3247 39.6482C64.4109 39.6553 65.3161 39.4272 66.0402 38.964C66.7778 38.4828 67.3456 37.8014 67.6695 37.0088C68.0513 36.0689 68.2365 35.0672 68.2145 34.06C68.2377 33.0572 68.0526 32.0599 67.6695 31.1253C67.3429 30.337 66.7754 29.6597 66.0402 29.1806C65.3173 28.7175 64.4122 28.4817 63.3247 28.4735C62.2373 28.4652 61.3339 28.6933 60.6148 29.1577C59.8811 29.6369 59.3155 30.3143 58.991 31.1023C58.6082 32.0425 58.4231 33.045 58.4461 34.0529C58.4222 35.0546 58.6055 36.0511 58.9855 36.9858C59.3079 37.7749 59.8739 38.4528 60.6092 38.9304C61.3333 39.3948 62.2385 39.6341 63.3247 39.6482Z" fill="#6B8E85"/>
<path d="M73.5547 41.7536V26.3732H76.2646V39.344H83.4143V41.7607L73.5547 41.7536Z" fill="#6B8E85"/>
<path d="M91.846 42.0736C90.6642 42.0979 89.4948 41.8408 88.4442 41.3258C87.4851 40.8449 86.6897 40.1147 86.1509 39.2203C85.5826 38.2483 85.2975 37.1498 85.3251 36.0381V26.3873L88.0685 26.3661V35.9709C88.0589 36.5024 88.1639 37.03 88.3772 37.5213C88.5642 37.9516 88.8423 38.3406 89.1943 38.6642C89.5463 38.9878 89.9646 39.2391 90.4232 39.4024C90.8759 39.5656 91.3562 39.6489 91.8405 39.6481C92.3302 39.6505 92.816 39.5653 93.2726 39.3971C93.7216 39.2322 94.1323 38.9853 94.4816 38.6705C94.8413 38.3437 95.1246 37.9485 95.313 37.5107C95.522 37.0221 95.6251 36.4984 95.6162 35.9709V26.3661H98.3596V36.0363C98.3871 37.148 98.1021 38.2465 97.5338 39.2185C96.9949 40.1129 96.1995 40.8432 95.2404 41.324C94.1922 41.8384 93.0255 42.0961 91.846 42.0736Z" fill="#6B8E85"/>
<path d="M105.404 41.7536V28.781H100.166V26.3661H113.351V28.781H108.114V41.7536H105.404Z" fill="#6B8E85"/>
<path d="M115.377 41.7536V26.3732H118.085V41.7536H115.377Z" fill="#6B8E85"/>
<path d="M128.305 42.0737C126.685 42.0737 125.298 41.7372 124.144 41.0643C122.99 40.3902 122.067 39.4118 121.487 38.248C120.867 37.0447 120.557 35.6487 120.557 34.06C120.557 32.4712 120.867 31.0746 121.487 29.8701C122.066 28.7066 122.99 27.7286 124.144 27.0557C125.299 26.3815 126.686 26.0444 128.305 26.0444C129.925 26.0444 131.313 26.3815 132.47 27.0557C133.626 27.7258 134.553 28.702 135.135 29.8648C135.755 31.0693 136.065 32.4659 136.065 34.0547C136.065 35.6434 135.755 37.0394 135.135 38.2427C134.553 39.4077 133.627 40.3863 132.47 41.059C131.313 41.7343 129.925 42.0725 128.305 42.0737ZM128.305 39.6482C129.391 39.6553 130.296 39.4272 131.019 38.964C131.757 38.4829 132.325 37.8015 132.65 37.0088C133.032 36.0689 133.217 35.0672 133.195 34.06C133.218 33.0572 133.033 32.0599 132.65 31.1253C132.323 30.3368 131.755 29.6594 131.019 29.1806C130.297 28.7175 129.393 28.4817 128.305 28.4735C127.218 28.4652 126.314 28.6933 125.595 29.1577C124.862 29.6369 124.296 30.3143 123.972 31.1023C123.246 33.0029 123.246 35.0852 123.972 36.9858C124.294 37.7749 124.86 38.4528 125.595 38.9304C126.316 39.3948 127.219 39.6341 128.305 39.6482Z" fill="#6B8E85"/>
<path d="M138.31 41.7536V26.3732H141.055L148.563 37.219V26.3661H151.309V41.7466H148.562L141.055 30.9077V41.7536H138.31Z" fill="#6B8E85"/>
<path d="M160.447 42.0736C159.35 42.0899 158.26 41.8894 157.248 41.4849C156.333 41.1187 155.529 40.54 154.91 39.8019C154.287 39.0483 153.885 38.1509 153.746 37.2014L156.556 36.7948C156.755 37.6518 157.282 38.408 158.035 38.9162C158.791 39.4177 159.694 39.6795 160.615 39.664C161.17 39.6678 161.722 39.5811 162.246 39.4077C162.718 39.2586 163.145 39.0018 163.488 38.6599C163.807 38.3317 163.977 37.8985 163.965 37.4524C163.967 37.2495 163.929 37.0481 163.853 36.8584C163.778 36.6771 163.665 36.5119 163.522 36.3722C163.357 36.2171 163.169 36.086 162.964 35.9833C162.711 35.8562 162.446 35.7537 162.172 35.6775L157.981 34.4983C157.586 34.3851 157.197 34.2511 156.817 34.097C156.39 33.9226 155.992 33.6884 155.638 33.4022C155.253 33.0903 154.942 32.704 154.726 32.269C154.473 31.734 154.352 31.1511 154.371 30.5648C154.34 29.6729 154.619 28.796 155.165 28.0703C155.712 27.3836 156.452 26.8587 157.3 26.557C158.25 26.2141 159.26 26.0473 160.276 26.0656C161.296 26.0549 162.308 26.2388 163.252 26.6065C164.099 26.9425 164.847 27.4684 165.432 28.1393C166.039 28.8474 166.465 29.6803 166.675 30.5719L163.764 31.0527C163.659 30.5435 163.421 30.0675 163.072 29.6685C162.733 29.2899 162.306 28.992 161.824 28.7987C161.327 28.5984 160.795 28.4893 160.256 28.4769C159.745 28.466 159.236 28.5439 158.755 28.7068C158.329 28.8454 157.945 29.0823 157.639 29.3962C157.364 29.6822 157.213 30.057 157.219 30.4446C157.211 30.6133 157.239 30.7817 157.301 30.9401C157.363 31.0985 157.457 31.2437 157.578 31.3674C157.83 31.615 158.135 31.8085 158.472 31.9349C158.825 32.0752 159.187 32.1933 159.557 32.2885L162.458 33.0469C162.856 33.1477 163.303 33.282 163.797 33.4535C164.304 33.6309 164.784 33.8717 165.224 34.1695C165.691 34.486 166.078 34.8988 166.355 35.3769C166.672 35.9641 166.826 36.6193 166.799 37.2792C166.816 38.0101 166.636 38.7329 166.277 39.3794C165.932 39.9754 165.45 40.4888 164.865 40.8803C164.249 41.2903 163.562 41.5943 162.836 41.7784C162.057 41.9789 161.254 42.0782 160.447 42.0736Z" fill="#6B8E85"/>
</svg>
